<?xml version="1.0" standalone="no"?>
<!DOCTYPE svg PUBLIC "-//W3C//DTD SVG 20010904//EN"
 "http://www.w3.org/TR/2001/REC-SVG-20010904/DTD/svg10.dtd">
<svg version="1.0" xmlns="http://www.w3.org/2000/svg"
 width="1920.000000pt" height="1440.000000pt" viewBox="0 0 1920.000000 1440.000000"
 preserveAspectRatio="xMidYMid meet">

<g transform="translate(0.000000,1440.000000) scale(0.100000,-0.100000)"
fill="#000000" stroke="none">
<path d="M9469 10779 c-154 -22 -282 -66 -386 -131 -73 -46 -123 -99 -158
-168 -16 -31 -32 -50 -43 -50 -31 0 -117 -46 -151 -81 -19 -19 -46 -59 -60
-89 -24 -50 -26 -67 -26 -175 0 -99 5 -137 27 -215 37 -130 71 -215 88 -215 9
0 21 -31 36 -88 12 -49 24 -90 27 -93 2 -2 27 16 56 42 66 60 127 162 167 283
l32 96 73 38 c83 42 177 62 254 52 27 -3 124 -25 215 -47 168 -42 295 -54 378
-36 23 5 32 4 32 -5 0 -24 79 -176 118 -229 22 -29 56 -69 76 -88 41 -39 49
-35 60 31 3 21 15 56 25 76 33 65 54 228 49 381 -4 121 -9 148 -37 232 -43
126 -104 222 -197 309 -89 83 -202 144 -309 166 -75 16 -253 18 -346 4z"/>
<path d="M6380 10420 c-61 -18 -71 -23 -66 -37 4 -8 1 -11 -5 -8 -12 8 -51
-24 -43 -36 3 -5 0 -9 -7 -9 -7 0 -9 -3 -6 -7 4 -3 1 -13 -6 -21 -9 -11 -12
-80 -12 -261 0 -280 2 -288 84 -346 l43 -30 561 -3 c550 -3 648 1 632 28 -3 6
0 7 7 5 18 -7 73 52 87 94 16 50 14 475 -4 521 -7 19 -18 34 -25 32 -6 -1 -9
2 -6 7 9 14 -50 59 -92 71 -42 11 -1102 12 -1142 0z m329 -126 c14 9 11 -57
-3 -79 -9 -14 -11 -26 -5 -34 6 -8 5 -8 -2 -2 -11 9 -59 -32 -127 -110 l-23
-26 86 -92 c76 -81 85 -95 83 -126 -1 -18 -5 -32 -9 -29 -4 2 -10 0 -14 -6
-12 -19 -45 -10 -83 25 -22 19 -42 31 -46 27 -4 -4 -6 0 -4 8 2 8 -3 14 -9 12
-7 -1 -12 4 -10 10 1 7 -4 12 -11 10 -6 -1 -11 1 -10 5 2 5 -5 19 -14 32 -15
21 -19 23 -35 10 -17 -13 -17 -13 -4 4 13 16 13 20 1 27 -8 5 -18 6 -24 3 -5
-3 -6 -1 -2 6 9 14 -12 43 -24 36 -5 -3 -12 0 -16 6 -4 8 -3 9 5 5 8 -6 10 -1
5 18 -5 21 5 37 63 101 37 42 67 81 65 86 -1 6 2 8 7 5 12 -8 33 18 23 29 -4
5 -2 5 4 2 7 -4 18 1 25 10 8 9 27 24 43 34 25 15 31 16 43 3 8 -8 18 -12 22
-10z m347 1 c12 -8 24 -12 26 -9 22 21 -83 -284 -154 -449 -22 -51 -51 -67
-86 -48 -11 6 -22 8 -24 5 -3 -2 -4 12 -3 33 3 53 152 444 177 466 25 21 37
21 64 2z m199 5 c4 -6 12 -7 18 -4 7 4 9 3 5 -1 -5 -5 39 -57 97 -116 118
-121 124 -137 74 -193 -16 -19 -30 -39 -31 -43 0 -4 -3 -7 -7 -6 -4 1 -43 -34
-86 -78 -43 -43 -86 -79 -97 -79 -23 0 -58 35 -58 59 0 10 11 30 25 45 14 15
24 32 22 38 -1 7 5 13 13 13 8 1 14 7 12 15 -2 8 0 12 4 7 10 -10 45 23 37 36
-3 5 -2 7 4 4 5 -4 22 7 37 22 18 18 24 31 17 35 -6 4 -15 4 -21 1 -5 -3 -7 0
-5 7 5 12 -81 107 -97 108 -5 0 -8 3 -9 8 -1 4 -9 18 -19 32 -9 14 -20 39 -23
55 -3 17 -4 24 -1 17 5 -10 10 -8 21 7 15 22 57 28 68 11z m56 -27 c13 -16 12
-17 -3 -4 -17 13 -22 21 -14 21 2 0 10 -8 17 -17z m-998 -516 c7 3 8 2 4 -2
-14 -16 -36 -14 -29 3 4 10 7 12 10 4 2 -7 9 -9 15 -5z"/>
<path d="M12119 9967 c-48 -26 -83 -70 -99 -126 -10 -37 -14 -263 -5 -273 3
-3 5 -396 5 -873 l0 -867 22 -44 c22 -46 81 -99 97 -89 5 3 11 -1 13 -7 4 -10
230 -13 1104 -13 l1099 0 47 22 c31 15 57 38 75 65 l28 42 5 1005 c3 553 2
1020 -2 1037 -13 50 -50 96 -97 121 l-44 23 -1102 0 -1102 0 -44 -23z m956
-142 c28 -27 30 -37 14 -67 -24 -45 -54 -48 -458 -48 -209 0 -391 4 -404 9
-60 23 -75 75 -31 110 26 20 37 21 441 21 l414 0 24 -25z m916 -82 c13 -16 12
-17 -3 -4 -10 7 -18 15 -18 17 0 8 8 3 21 -13z m-258 -413 c23 -18 25 -24 15
-50 -5 -17 -19 -35 -29 -40 -29 -16 -1414 -13 -1442 2 -12 7 -24 12 -27 11 -3
-1 -5 16 -5 37 0 21 4 36 9 33 5 -4 7 1 3 10 -6 15 54 16 722 17 718 0 728 0
754 -20z m-291 -227 c26 -31 28 -51 7 -77 l-20 -26 -438 0 c-368 0 -440 2
-458 15 -32 23 -35 54 -8 81 l24 24 439 0 c406 0 440 -1 454 -17z m496 -229
c26 -18 29 -60 5 -86 -15 -17 -50 -18 -706 -18 -628 0 -692 1 -709 17 -18 16
-23 49 -10 69 22 32 48 33 722 34 596 0 678 -2 698 -16z m-204 -239 c20 -26
20 -60 0 -80 -14 -14 -63 -15 -433 -15 l-416 1 -3 44 c-5 78 -16 76 440 73
384 -3 398 -4 412 -23z m449 -233 c10 -10 14 -22 11 -25 -4 -4 -1 -15 7 -24 7
-10 9 -15 5 -11 -5 4 -15 0 -22 -10 -12 -16 -69 -17 -824 -22 -810 -5 -811 -5
-831 16 -21 23 -24 46 -9 75 10 19 30 19 829 19 780 0 819 -1 834 -18z m-1155
-224 c16 -16 15 -73 -2 -87 -9 -8 -119 -11 -387 -9 l-373 3 -15 26 c-13 24
-13 29 2 53 l17 26 373 0 c277 0 376 -3 385 -12z m704 -235 c22 -19 23 -52 4
-79 -14 -18 -32 -19 -598 -19 -321 0 -592 2 -603 5 -27 5 -32 65 -9 92 16 17
47 18 602 18 531 0 587 -2 604 -17z m698 -187 c0 -2 -8 -10 -17 -17 -16 -13
-17 -12 -4 4 13 16 21 21 21 13z"/>
<path d="M9301 9496 c-34 -40 -16 -128 26 -134 26 -4 45 27 45 73 0 63 -41 98
-71 61z"/>
<path d="M9791 9496 c-34 -40 -16 -128 26 -134 26 -4 45 27 45 73 0 63 -41 98
-71 61z"/>
<path d="M5279 8635 c-134 -25 -129 -21 -129 -119 l0 -84 -65 -36 c-36 -20
-70 -36 -74 -36 -5 0 -39 18 -77 40 l-68 40 -34 -33 c-105 -101 -232 -335
-232 -428 0 -10 26 -31 68 -55 l67 -39 3 -82 3 -82 -71 -41 c-45 -26 -70 -47
-70 -59 0 -33 42 -146 82 -222 44 -83 161 -229 183 -229 7 0 44 17 80 39 l67
38 67 -38 66 -39 5 -87 5 -88 75 -18 c103 -25 288 -25 390 0 l75 18 3 88 3 87
42 21 c23 12 53 30 68 40 25 17 26 17 93 -22 37 -21 74 -39 81 -39 20 0 109
104 161 186 24 39 57 107 73 150 49 136 51 124 -35 173 l-75 43 3 81 3 81 70
41 c80 47 79 44 39 160 -35 102 -99 206 -173 286 l-66 69 -69 -40 c-38 -23
-74 -40 -80 -38 -6 2 -39 19 -73 38 l-62 35 -3 85 -3 85 -65 18 c-90 24 -256
30 -351 12z m316 -463 c207 -97 294 -338 197 -546 -145 -309 -581 -310 -733
-1 -32 66 -34 75 -34 175 0 102 1 109 38 182 41 84 99 143 179 184 70 35 113
44 205 40 66 -3 95 -10 148 -34z"/>
<path d="M9020 8580 c-201 -76 -659 -328 -643 -354 4 -5 1 -6 -4 -3 -13 8 -87
-47 -166 -122 -54 -51 -127 -148 -127 -168 0 -4 5 -1 11 7 9 13 10 13 6 0 -2
-8 -10 -14 -16 -13 -12 3 -80 -128 -134 -257 -55 -135 -129 -362 -124 -382 3
-10 2 -16 -3 -13 -9 5 -7 13 -49 -190 -42 -204 -61 -394 -61 -598 0 -211 16
-331 65 -502 5 -18 -5 -24 -81 -50 -123 -41 -332 -145 -447 -222 -127 -84
-218 -169 -279 -262 -72 -108 -83 -159 -83 -376 0 -159 3 -188 22 -251 20 -63
30 -79 83 -128 201 -186 739 -492 1173 -667 l109 -44 -9 -45 c-4 -25 -7 -99
-7 -165 1 -95 6 -132 23 -179 68 -190 136 -229 391 -229 275 0 588 67 815 174
l62 29 134 -34 c257 -65 417 -72 503 -22 82 48 136 139 154 258 l7 50 170 58
c531 179 1273 511 1662 742 131 78 174 119 204 194 21 53 24 75 24 209 0 168
-13 242 -69 385 -39 98 -81 151 -169 214 -123 87 -367 203 -586 277 -82 28
-111 47 -90 59 5 4 14 59 21 124 19 203 -17 572 -86 887 -54 243 -66 289 -110
439 -70 239 -91 301 -101 293 -4 -4 -5 -2 -1 5 15 26 -120 320 -144 314 -5 -1
-9 1 -8 6 5 15 -80 94 -93 87 -7 -5 -10 -4 -5 3 8 13 -65 74 -82 67 -7 -3 -10
-1 -7 5 8 13 -41 43 -56 34 -8 -4 -9 -3 -5 5 8 12 -33 32 -48 23 -5 -3 -6 -1
-3 5 6 10 -140 97 -279 166 -169 84 -460 204 -471 194 -2 -3 4 -26 15 -53 l18
-49 -27 -23 c-39 -32 -162 -88 -239 -109 -49 -14 -103 -18 -220 -18 -178 0
-241 13 -360 73 -82 41 -79 35 -65 130 4 29 4 52 -1 52 -5 0 -56 -18 -114 -40z
m1275 -1690 c290 -15 546 -30 575 -35 14 -2 60 -9 103 -16 l78 -13 -6 -55 c-3
-31 -9 -121 -15 -201 -5 -80 -21 -314 -35 -520 -14 -206 -32 -440 -40 -520 -8
-80 -20 -234 -26 -342 l-12 -198 -1337 0 -1336 0 -17 228 c-9 125 -25 340 -36
477 -11 138 -27 363 -36 500 -9 138 -23 333 -30 435 -7 102 -10 188 -6 193 13
14 355 45 621 57 146 6 279 13 295 14 86 8 1088 4 1260 -4z"/>
</g>
</svg>
